<svg xmlns="http://www.w3.org/2000/svg" xmlns:xlink="http://www.w3.org/1999/xlink" width="240" zoomAndPan="magnify" viewBox="0 0 180 64.08" height="75" preserveAspectRatio="xMidYMid meet" version="1.0"><defs><g/><clipPath id="3b8e6fb0bf"><path d="M 1.273438 0 L 178.726562 0 L 178.726562 55.453125 L 1.273438 55.453125 Z M 1.273438 0 " clip-rule="nonzero"/></clipPath><clipPath id="79879f8752"><path d="M 40 0.699219 L 69 0.699219 L 69 25 L 40 25 Z M 40 0.699219 " clip-rule="nonzero"/></clipPath><clipPath id="63233c31b3"><rect x="0" width="176" y="0" height="33"/></clipPath><clipPath id="62a354874f"><rect x="0" width="24" y="0" height="32"/></clipPath><clipPath id="c9aeb844c7"><path d="M 0.0351562 1 L 24 1 L 24 25 L 0.0351562 25 Z M 0.0351562 1 " clip-rule="nonzero"/></clipPath><clipPath id="21e1fc33bd"><rect x="0" width="25" y="0" height="32"/></clipPath><clipPath id="cf2a06704e"><rect x="0" width="26" y="0" height="32"/></clipPath><clipPath id="4dc69108ce"><rect x="0" width="22" y="0" height="33"/></clipPath><clipPath id="f889d8c38e"><path d="M 1 2 L 21.699219 2 L 21.699219 24 L 1 24 Z M 1 2 " clip-rule="nonzero"/></clipPath><clipPath id="93c4ebf2ad"><rect x="0" width="22" y="0" height="32"/></clipPath><clipPath id="1ffd6ce8b2"><rect x="0" width="21" y="0" height="32"/></clipPath><clipPath id="8476997926"><path d="M 1 0.519531 L 29.835938 0.519531 L 29.835938 24 L 1 24 Z M 1 0.519531 " clip-rule="nonzero"/></clipPath><clipPath id="5944786b83"><rect x="0" width="30" y="0" height="32"/></clipPath><clipPath id="a4e6bf3790"><path d="M 0.0507812 1 L 20.632812 1 L 20.632812 25 L 0.0507812 25 Z M 0.0507812 1 " clip-rule="nonzero"/></clipPath><clipPath id="a1e51b538c"><rect x="0" width="21" y="0" height="32"/></clipPath></defs><g clip-path="url(#3b8e6fb0bf)"><path fill="#ffffff" d="M 1.273438 0 L 178.726562 0 L 178.726562 55.453125 L 1.273438 55.453125 Z M 1.273438 0 " fill-opacity="1" fill-rule="nonzero"/><path fill="#0a0a0a" d="M 1.273438 0 L 178.726562 0 L 178.726562 55.453125 L 1.273438 55.453125 Z M 1.273438 0 " fill-opacity="1" fill-rule="nonzero"/></g><g transform="matrix(1, 0, 0, 1, 2, 9)"><g clip-path="url(#63233c31b3)"><g fill="#ff0099" fill-opacity="0.302"><g transform="translate(1.480613, 27.002274)"><g><path d="M 0.90625 -21.84375 L 12.265625 -21.84375 C 13.453125 -21.84375 14.523438 -21.625 15.484375 -21.1875 C 16.453125 -20.75 17.257812 -20.160156 17.90625 -19.421875 C 18.550781 -18.679688 19.007812 -17.867188 19.28125 -16.984375 C 19.550781 -16.097656 19.59375 -15.191406 19.40625 -14.265625 C 19.21875 -13.347656 18.757812 -12.492188 18.03125 -11.703125 C 19.03125 -10.972656 19.707031 -10.101562 20.0625 -9.09375 C 20.414062 -8.082031 20.484375 -7.046875 20.265625 -5.984375 C 20.046875 -4.929688 19.570312 -3.953125 18.84375 -3.046875 C 18.113281 -2.140625 17.160156 -1.40625 15.984375 -0.84375 C 14.816406 -0.28125 13.460938 0 11.921875 0 L 0.90625 0 Z M 0.90625 -21.84375 "/></g></g></g><g fill="#ff0099" fill-opacity="0.302"><g transform="translate(22.632785, 27.002274)"><g><path d="M 11.859375 -10.921875 L 17.90625 -10.921875 L 17.90625 0 L 0.9375 0 L 0.9375 -21.84375 L 11.859375 -21.84375 Z M 11.859375 -10.921875 "/></g></g></g><g fill="#ff0099" fill-opacity="0.302"><g transform="translate(41.725893, 27.002274)"><g><path d="M -0.875 0 L 12.921875 -23.375 L 26.703125 0 Z M -0.875 0 "/></g></g></g><g fill="#ff0099" fill-opacity="0.302"><g transform="translate(65.186706, 27.002274)"><g><path d="M 3.71875 -19.0625 C 4.832031 -20.1875 6.09375 -21.03125 7.5 -21.59375 C 8.90625 -22.15625 10.351562 -22.4375 11.84375 -22.4375 C 13.332031 -22.4375 14.773438 -22.15625 16.171875 -21.59375 C 17.578125 -21.03125 18.84375 -20.1875 19.96875 -19.0625 L 11.828125 -10.953125 L 19.96875 -2.8125 C 18.84375 -1.6875 17.578125 -0.84375 16.171875 -0.28125 C 14.773438 0.28125 13.332031 0.5625 11.84375 0.5625 C 10.351562 0.5625 8.90625 0.28125 7.5 -0.28125 C 6.09375 -0.84375 4.832031 -1.6875 3.71875 -2.8125 C 2.59375 -3.9375 1.75 -5.195312 1.1875 -6.59375 C 0.625 -8 0.34375 -9.445312 0.34375 -10.9375 C 0.34375 -12.425781 0.625 -13.867188 1.1875 -15.265625 C 1.75 -16.671875 2.59375 -17.9375 3.71875 -19.0625 Z M 3.71875 -19.0625 "/></g></g></g><g fill="#ff0099" fill-opacity="0.302"><g transform="translate(85.496532, 27.002274)"><g><path d="M 0.9375 -21.84375 L 22.34375 -21.84375 L 14.171875 -10.921875 L 22.34375 0.03125 L 0.9375 0.03125 Z M 0.9375 -21.84375 "/></g></g></g><g fill="#ff0099" fill-opacity="0.302"><g transform="translate(105.338396, 27.002274)"><g><path d="M 11.953125 -22.59375 C 13.554688 -22.59375 15.054688 -22.289062 16.453125 -21.6875 C 17.859375 -21.082031 19.097656 -20.242188 20.171875 -19.171875 C 21.242188 -18.097656 22.082031 -16.859375 22.6875 -15.453125 C 23.289062 -14.054688 23.59375 -12.554688 23.59375 -10.953125 C 23.59375 -9.347656 23.289062 -7.84375 22.6875 -6.4375 C 22.082031 -5.039062 21.242188 -3.804688 20.171875 -2.734375 C 19.097656 -1.660156 17.859375 -0.820312 16.453125 -0.21875 C 15.054688 0.382812 13.554688 0.6875 11.953125 0.6875 C 10.347656 0.6875 8.84375 0.382812 7.4375 -0.21875 C 6.03125 -0.820312 4.789062 -1.660156 3.71875 -2.734375 C 2.65625 -3.804688 1.820312 -5.039062 1.21875 -6.4375 C 0.613281 -7.84375 0.3125 -9.347656 0.3125 -10.953125 C 0.3125 -12.554688 0.613281 -14.054688 1.21875 -15.453125 C 1.820312 -16.859375 2.65625 -18.097656 3.71875 -19.171875 C 4.789062 -20.242188 6.03125 -21.082031 7.4375 -21.6875 C 8.84375 -22.289062 10.347656 -22.59375 11.953125 -22.59375 Z M 11.953125 -22.59375 "/></g></g></g><g fill="#ff0099" fill-opacity="0.302"><g transform="translate(129.735144, 27.002274)"><g><path d="M 0.8125 -10.484375 L 0.8125 -21.90625 L 22.65625 -21.90625 L 22.65625 -10.484375 C 22.65625 -8.984375 22.375 -7.570312 21.8125 -6.25 C 21.25 -4.9375 20.460938 -3.773438 19.453125 -2.765625 C 18.441406 -1.753906 17.273438 -0.96875 15.953125 -0.40625 C 14.640625 0.15625 13.234375 0.4375 11.734375 0.4375 C 10.234375 0.4375 8.820312 0.15625 7.5 -0.40625 C 6.175781 -0.96875 5.007812 -1.753906 4 -2.765625 C 3 -3.773438 2.21875 -4.9375 1.65625 -6.25 C 1.09375 -7.570312 0.8125 -8.984375 0.8125 -10.484375 Z M 0.8125 -10.484375 "/></g></g></g><g fill="#ff0099" fill-opacity="0.302"><g transform="translate(153.539136, 27.002274)"><g><path d="M 16.0625 -10.890625 L 16.0625 0.03125 L 5.15625 0.03125 L 5.15625 -10.890625 L 0.625 -10.890625 L 0.625 -21.84375 L 20.3125 -21.84375 L 20.3125 -10.890625 Z M 16.0625 -10.890625 "/></g></g></g><g fill="#ff0099" fill-opacity="0.502"><g transform="translate(1.480613, 25.637364)"><g><path d="M 0.90625 -21.84375 L 12.265625 -21.84375 C 13.453125 -21.84375 14.523438 -21.625 15.484375 -21.1875 C 16.453125 -20.75 17.257812 -20.160156 17.90625 -19.421875 C 18.550781 -18.679688 19.007812 -17.867188 19.28125 -16.984375 C 19.550781 -16.097656 19.59375 -15.191406 19.40625 -14.265625 C 19.21875 -13.347656 18.757812 -12.492188 18.03125 -11.703125 C 19.03125 -10.972656 19.707031 -10.101562 20.0625 -9.09375 C 20.414062 -8.082031 20.484375 -7.046875 20.265625 -5.984375 C 20.046875 -4.929688 19.570312 -3.953125 18.84375 -3.046875 C 18.113281 -2.140625 17.160156 -1.40625 15.984375 -0.84375 C 14.816406 -0.28125 13.460938 0 11.921875 0 L 0.90625 0 Z M 0.90625 -21.84375 "/></g></g></g><g fill="#ff0099" fill-opacity="0.502"><g transform="translate(22.632785, 25.637364)"><g><path d="M 11.859375 -10.921875 L 17.90625 -10.921875 L 17.90625 0 L 0.9375 0 L 0.9375 -21.84375 L 11.859375 -21.84375 Z M 11.859375 -10.921875 "/></g></g></g><g fill="#ff0099" fill-opacity="0.502"><g transform="translate(41.725893, 25.637364)"><g><path d="M -0.875 0 L 12.921875 -23.375 L 26.703125 0 Z M -0.875 0 "/></g></g></g><g fill="#ff0099" fill-opacity="0.502"><g transform="translate(65.186706, 25.637364)"><g><path d="M 3.71875 -19.0625 C 4.832031 -20.1875 6.09375 -21.03125 7.5 -21.59375 C 8.90625 -22.15625 10.351562 -22.4375 11.84375 -22.4375 C 13.332031 -22.4375 14.773438 -22.15625 16.171875 -21.59375 C 17.578125 -21.03125 18.84375 -20.1875 19.96875 -19.0625 L 11.828125 -10.953125 L 19.96875 -2.8125 C 18.84375 -1.6875 17.578125 -0.84375 16.171875 -0.28125 C 14.773438 0.28125 13.332031 0.5625 11.84375 0.5625 C 10.351562 0.5625 8.90625 0.28125 7.5 -0.28125 C 6.09375 -0.84375 4.832031 -1.6875 3.71875 -2.8125 C 2.59375 -3.9375 1.75 -5.195312 1.1875 -6.59375 C 0.625 -8 0.34375 -9.445312 0.34375 -10.9375 C 0.34375 -12.425781 0.625 -13.867188 1.1875 -15.265625 C 1.75 -16.671875 2.59375 -17.9375 3.71875 -19.0625 Z M 3.71875 -19.0625 "/></g></g></g><g fill="#ff0099" fill-opacity="0.502"><g transform="translate(85.496532, 25.637364)"><g><path d="M 0.9375 -21.84375 L 22.34375 -21.84375 L 14.171875 -10.921875 L 22.34375 0.03125 L 0.9375 0.03125 Z M 0.9375 -21.84375 "/></g></g></g><g fill="#ff0099" fill-opacity="0.502"><g transform="translate(105.338396, 25.637364)"><g><path d="M 11.953125 -22.59375 C 13.554688 -22.59375 15.054688 -22.289062 16.453125 -21.6875 C 17.859375 -21.082031 19.097656 -20.242188 20.171875 -19.171875 C 21.242188 -18.097656 22.082031 -16.859375 22.6875 -15.453125 C 23.289062 -14.054688 23.59375 -12.554688 23.59375 -10.953125 C 23.59375 -9.347656 23.289062 -7.84375 22.6875 -6.4375 C 22.082031 -5.039062 21.242188 -3.804688 20.171875 -2.734375 C 19.097656 -1.660156 17.859375 -0.820312 16.453125 -0.21875 C 15.054688 0.382812 13.554688 0.6875 11.953125 0.6875 C 10.347656 0.6875 8.84375 0.382812 7.4375 -0.21875 C 6.03125 -0.820312 4.789062 -1.660156 3.71875 -2.734375 C 2.65625 -3.804688 1.820312 -5.039062 1.21875 -6.4375 C 0.613281 -7.84375 0.3125 -9.347656 0.3125 -10.953125 C 0.3125 -12.554688 0.613281 -14.054688 1.21875 -15.453125 C 1.820312 -16.859375 2.65625 -18.097656 3.71875 -19.171875 C 4.789062 -20.242188 6.03125 -21.082031 7.4375 -21.6875 C 8.84375 -22.289062 10.347656 -22.59375 11.953125 -22.59375 Z M 11.953125 -22.59375 "/></g></g></g><g fill="#ff0099" fill-opacity="0.502"><g transform="translate(129.735144, 25.637364)"><g><path d="M 0.8125 -10.484375 L 0.8125 -21.90625 L 22.65625 -21.90625 L 22.65625 -10.484375 C 22.65625 -8.984375 22.375 -7.570312 21.8125 -6.25 C 21.25 -4.9375 20.460938 -3.773438 19.453125 -2.765625 C 18.441406 -1.753906 17.273438 -0.96875 15.953125 -0.40625 C 14.640625 0.15625 13.234375 0.4375 11.734375 0.4375 C 10.234375 0.4375 8.820312 0.15625 7.5 -0.40625 C 6.175781 -0.96875 5.007812 -1.753906 4 -2.765625 C 3 -3.773438 2.21875 -4.9375 1.65625 -6.25 C 1.09375 -7.570312 0.8125 -8.984375 0.8125 -10.484375 Z M 0.8125 -10.484375 "/></g></g></g><g fill="#ff0099" fill-opacity="0.502"><g transform="translate(153.539136, 25.637364)"><g><path d="M 16.0625 -10.890625 L 16.0625 0.03125 L 5.15625 0.03125 L 5.15625 -10.890625 L 0.625 -10.890625 L 0.625 -21.84375 L 20.3125 -21.84375 L 20.3125 -10.890625 Z M 16.0625 -10.890625 "/></g></g></g><g fill="#ff0099" fill-opacity="1"><g transform="translate(1.480613, 24.272455)"><g><path d="M 0.90625 -21.84375 L 12.265625 -21.84375 C 13.453125 -21.84375 14.523438 -21.625 15.484375 -21.1875 C 16.453125 -20.75 17.257812 -20.160156 17.90625 -19.421875 C 18.550781 -18.679688 19.007812 -17.867188 19.28125 -16.984375 C 19.550781 -16.097656 19.59375 -15.191406 19.40625 -14.265625 C 19.21875 -13.347656 18.757812 -12.492188 18.03125 -11.703125 C 19.03125 -10.972656 19.707031 -10.101562 20.0625 -9.09375 C 20.414062 -8.082031 20.484375 -7.046875 20.265625 -5.984375 C 20.046875 -4.929688 19.570312 -3.953125 18.84375 -3.046875 C 18.113281 -2.140625 17.160156 -1.40625 15.984375 -0.84375 C 14.816406 -0.28125 13.460938 0 11.921875 0 L 0.90625 0 Z M 0.90625 -21.84375 "/></g></g></g><g fill="#ff0099" fill-opacity="1"><g transform="translate(22.632785, 24.272455)"><g><path d="M 11.859375 -10.921875 L 17.90625 -10.921875 L 17.90625 0 L 0.9375 0 L 0.9375 -21.84375 L 11.859375 -21.84375 Z M 11.859375 -10.921875 "/></g></g></g><g clip-path="url(#79879f8752)"><g fill="#ff0099" fill-opacity="1"><g transform="translate(41.725893, 24.272455)"><g><path d="M -0.875 0 L 12.921875 -23.375 L 26.703125 0 Z M -0.875 0 "/></g></g></g></g><g fill="#ff0099" fill-opacity="1"><g transform="translate(65.186706, 24.272455)"><g><path d="M 3.71875 -19.0625 C 4.832031 -20.1875 6.09375 -21.03125 7.5 -21.59375 C 8.90625 -22.15625 10.351562 -22.4375 11.84375 -22.4375 C 13.332031 -22.4375 14.773438 -22.15625 16.171875 -21.59375 C 17.578125 -21.03125 18.84375 -20.1875 19.96875 -19.0625 L 11.828125 -10.953125 L 19.96875 -2.8125 C 18.84375 -1.6875 17.578125 -0.84375 16.171875 -0.28125 C 14.773438 0.28125 13.332031 0.5625 11.84375 0.5625 C 10.351562 0.5625 8.90625 0.28125 7.5 -0.28125 C 6.09375 -0.84375 4.832031 -1.6875 3.71875 -2.8125 C 2.59375 -3.9375 1.75 -5.195312 1.1875 -6.59375 C 0.625 -8 0.34375 -9.445312 0.34375 -10.9375 C 0.34375 -12.425781 0.625 -13.867188 1.1875 -15.265625 C 1.75 -16.671875 2.59375 -17.9375 3.71875 -19.0625 Z M 3.71875 -19.0625 "/></g></g></g><g fill="#ff0099" fill-opacity="1"><g transform="translate(85.496532, 24.272455)"><g><path d="M 0.9375 -21.84375 L 22.34375 -21.84375 L 14.171875 -10.921875 L 22.34375 0.03125 L 0.9375 0.03125 Z M 0.9375 -21.84375 "/></g></g></g><g fill="#ff0099" fill-opacity="1"><g transform="translate(105.338396, 24.272455)"><g><path d="M 11.953125 -22.59375 C 13.554688 -22.59375 15.054688 -22.289062 16.453125 -21.6875 C 17.859375 -21.082031 19.097656 -20.242188 20.171875 -19.171875 C 21.242188 -18.097656 22.082031 -16.859375 22.6875 -15.453125 C 23.289062 -14.054688 23.59375 -12.554688 23.59375 -10.953125 C 23.59375 -9.347656 23.289062 -7.84375 22.6875 -6.4375 C 22.082031 -5.039062 21.242188 -3.804688 20.171875 -2.734375 C 19.097656 -1.660156 17.859375 -0.820312 16.453125 -0.21875 C 15.054688 0.382812 13.554688 0.6875 11.953125 0.6875 C 10.347656 0.6875 8.84375 0.382812 7.4375 -0.21875 C 6.03125 -0.820312 4.789062 -1.660156 3.71875 -2.734375 C 2.65625 -3.804688 1.820312 -5.039062 1.21875 -6.4375 C 0.613281 -7.84375 0.3125 -9.347656 0.3125 -10.953125 C 0.3125 -12.554688 0.613281 -14.054688 1.21875 -15.453125 C 1.820312 -16.859375 2.65625 -18.097656 3.71875 -19.171875 C 4.789062 -20.242188 6.03125 -21.082031 7.4375 -21.6875 C 8.84375 -22.289062 10.347656 -22.59375 11.953125 -22.59375 Z M 11.953125 -22.59375 "/></g></g></g><g fill="#ff0099" fill-opacity="1"><g transform="translate(129.735144, 24.272455)"><g><path d="M 0.8125 -10.484375 L 0.8125 -21.90625 L 22.65625 -21.90625 L 22.65625 -10.484375 C 22.65625 -8.984375 22.375 -7.570312 21.8125 -6.25 C 21.25 -4.9375 20.460938 -3.773438 19.453125 -2.765625 C 18.441406 -1.753906 17.273438 -0.96875 15.953125 -0.40625 C 14.640625 0.15625 13.234375 0.4375 11.734375 0.4375 C 10.234375 0.4375 8.820312 0.15625 7.5 -0.40625 C 6.175781 -0.96875 5.007812 -1.753906 4 -2.765625 C 3 -3.773438 2.21875 -4.9375 1.65625 -6.25 C 1.09375 -7.570312 0.8125 -8.984375 0.8125 -10.484375 Z M 0.8125 -10.484375 "/></g></g></g><g fill="#ff0099" fill-opacity="1"><g transform="translate(153.539136, 24.272455)"><g><path d="M 16.0625 -10.890625 L 16.0625 0.03125 L 5.15625 0.03125 L 5.15625 -10.890625 L 0.625 -10.890625 L 0.625 -21.84375 L 20.3125 -21.84375 L 20.3125 -10.890625 Z M 16.0625 -10.890625 "/></g></g></g></g></g><g transform="matrix(1, 0, 0, 1, 87, 8)"><g clip-path="url(#62a354874f)"><g fill="#ccff00" fill-opacity="1"><g transform="translate(0.438469, 23.961599)"><g><path d="M 0.9375 -21.84375 L 22.34375 -21.84375 L 14.171875 -10.921875 L 22.34375 0.03125 L 0.9375 0.03125 Z M 0.9375 -21.84375 "/></g></g></g></g></g><g transform="matrix(1, 0, 0, 1, 107, 8)"><g clip-path="url(#21e1fc33bd)"><g clip-path="url(#c9aeb844c7)"><g fill="#ccff00" fill-opacity="1"><g transform="translate(0.0833038, 23.805606)"><g><path d="M 11.953125 -22.59375 C 13.554688 -22.59375 15.054688 -22.289062 16.453125 -21.6875 C 17.859375 -21.082031 19.097656 -20.242188 20.171875 -19.171875 C 21.242188 -18.097656 22.082031 -16.859375 22.6875 -15.453125 C 23.289062 -14.054688 23.59375 -12.554688 23.59375 -10.953125 C 23.59375 -9.347656 23.289062 -7.84375 22.6875 -6.4375 C 22.082031 -5.039062 21.242188 -3.804688 20.171875 -2.734375 C 19.097656 -1.660156 17.859375 -0.820312 16.453125 -0.21875 C 15.054688 0.382812 13.554688 0.6875 11.953125 0.6875 C 10.347656 0.6875 8.84375 0.382812 7.4375 -0.21875 C 6.03125 -0.820312 4.789062 -1.660156 3.71875 -2.734375 C 2.65625 -3.804688 1.820312 -5.039062 1.21875 -6.4375 C 0.613281 -7.84375 0.3125 -9.347656 0.3125 -10.953125 C 0.3125 -12.554688 0.613281 -14.054688 1.21875 -15.453125 C 1.820312 -16.859375 2.65625 -18.097656 3.71875 -19.171875 C 4.789062 -20.242188 6.03125 -21.082031 7.4375 -21.6875 C 8.84375 -22.289062 10.347656 -22.59375 11.953125 -22.59375 Z M 11.953125 -22.59375 "/></g></g></g></g></g></g><g transform="matrix(1, 0, 0, 1, 131, 8)"><g clip-path="url(#cf2a06704e)"><g fill="#ccff00" fill-opacity="1"><g transform="translate(0.68946, 23.961599)"><g><path d="M 0.8125 -10.484375 L 0.8125 -21.90625 L 22.65625 -21.90625 L 22.65625 -10.484375 C 22.65625 -8.984375 22.375 -7.570312 21.8125 -6.25 C 21.25 -4.9375 20.460938 -3.773438 19.453125 -2.765625 C 18.441406 -1.753906 17.273438 -0.96875 15.953125 -0.40625 C 14.640625 0.15625 13.234375 0.4375 11.734375 0.4375 C 10.234375 0.4375 8.820312 0.15625 7.5 -0.40625 C 6.175781 -0.96875 5.007812 -1.753906 4 -2.765625 C 3 -3.773438 2.21875 -4.9375 1.65625 -6.25 C 1.09375 -7.570312 0.8125 -8.984375 0.8125 -10.484375 Z M 0.8125 -10.484375 "/></g></g></g></g></g><g transform="matrix(1, 0, 0, 1, 155, 8)"><g clip-path="url(#4dc69108ce)"><g fill="#ccff00" fill-opacity="1"><g transform="translate(0.515651, 24.273578)"><g><path d="M 16.0625 -10.890625 L 16.0625 0.03125 L 5.15625 0.03125 L 5.15625 -10.890625 L 0.625 -10.890625 L 0.625 -21.84375 L 20.3125 -21.84375 L 20.3125 -10.890625 Z M 16.0625 -10.890625 "/></g></g></g></g></g><g transform="matrix(1, 0, 0, 1, 3, 8)"><g clip-path="url(#93c4ebf2ad)"><g clip-path="url(#f889d8c38e)"><g fill="#ccff00" fill-opacity="1"><g transform="translate(0.417484, 23.961599)"><g><path d="M 0.90625 -21.84375 L 12.265625 -21.84375 C 13.453125 -21.84375 14.523438 -21.625 15.484375 -21.1875 C 16.453125 -20.75 17.257812 -20.160156 17.90625 -19.421875 C 18.550781 -18.679688 19.007812 -17.867188 19.28125 -16.984375 C 19.550781 -16.097656 19.59375 -15.191406 19.40625 -14.265625 C 19.21875 -13.347656 18.757812 -12.492188 18.03125 -11.703125 C 19.03125 -10.972656 19.707031 -10.101562 20.0625 -9.09375 C 20.414062 -8.082031 20.484375 -7.046875 20.265625 -5.984375 C 20.046875 -4.929688 19.570312 -3.953125 18.84375 -3.046875 C 18.113281 -2.140625 17.160156 -1.40625 15.984375 -0.84375 C 14.816406 -0.28125 13.460938 0 11.921875 0 L 0.90625 0 Z M 0.90625 -21.84375 "/></g></g></g></g></g></g><g transform="matrix(1, 0, 0, 1, 24, 8)"><g clip-path="url(#1ffd6ce8b2)"><g fill="#ccff00" fill-opacity="1"><g transform="translate(0.544353, 23.961599)"><g><path d="M 11.859375 -10.921875 L 17.90625 -10.921875 L 17.90625 0 L 0.9375 0 L 0.9375 -21.84375 L 11.859375 -21.84375 Z M 11.859375 -10.921875 "/></g></g></g></g></g><g transform="matrix(1, 0, 0, 1, 41, 8)"><g clip-path="url(#5944786b83)"><g clip-path="url(#8476997926)"><g fill="#ccff00" fill-opacity="1"><g transform="translate(2.400106, 23.961599)"><g><path d="M -0.875 0 L 12.921875 -23.375 L 26.703125 0 Z M -0.875 0 "/></g></g></g></g></g></g><g transform="matrix(1, 0, 0, 1, 67, 8)"><g clip-path="url(#a1e51b538c)"><g clip-path="url(#a4e6bf3790)"><g fill="#ccff00" fill-opacity="1"><g transform="translate(0.136824, 23.961599)"><g><path d="M 3.71875 -19.0625 C 4.832031 -20.1875 6.09375 -21.03125 7.5 -21.59375 C 8.90625 -22.15625 10.351562 -22.4375 11.84375 -22.4375 C 13.332031 -22.4375 14.773438 -22.15625 16.171875 -21.59375 C 17.578125 -21.03125 18.84375 -20.1875 19.96875 -19.0625 L 11.828125 -10.953125 L 19.96875 -2.8125 C 18.84375 -1.6875 17.578125 -0.84375 16.171875 -0.28125 C 14.773438 0.28125 13.332031 0.5625 11.84375 0.5625 C 10.351562 0.5625 8.90625 0.28125 7.5 -0.28125 C 6.09375 -0.84375 4.832031 -1.6875 3.71875 -2.8125 C 2.59375 -3.9375 1.75 -5.195312 1.1875 -6.59375 C 0.625 -8 0.34375 -9.445312 0.34375 -10.9375 C 0.34375 -12.425781 0.625 -13.867188 1.1875 -15.265625 C 1.75 -16.671875 2.59375 -17.9375 3.71875 -19.0625 Z M 3.71875 -19.0625 "/></g></g></g></g></g></g></svg>