<svg xmlns="http://www.w3.org/2000/svg" xmlns:xlink="http://www.w3.org/1999/xlink" width="240" zoomAndPan="magnify" viewBox="0 0 180 37.5" height="50" preserveAspectRatio="xMidYMid meet" version="1.0"><defs><g/><clipPath id="d4cc049cbf"><path d="M 40 0.84375 L 69 0.84375 L 69 25 L 40 25 Z M 40 0.84375 " clip-rule="nonzero"/></clipPath><clipPath id="8a75d9be19"><rect x="0" width="176" y="0" height="33"/></clipPath><clipPath id="192a4147c6"><rect x="0" width="24" y="0" height="32"/></clipPath><clipPath id="696720c12d"><path d="M 0.0507812 1 L 24 1 L 24 25 L 0.0507812 25 Z M 0.0507812 1 " clip-rule="nonzero"/></clipPath><clipPath id="8f06733c0a"><rect x="0" width="25" y="0" height="32"/></clipPath><clipPath id="c6608bc389"><rect x="0" width="26" y="0" height="32"/></clipPath><clipPath id="0ac6b04f1e"><rect x="0" width="22" y="0" height="33"/></clipPath><clipPath id="dbcc3356f0"><rect x="0" width="22" y="0" height="32"/></clipPath><clipPath id="7c19b93a15"><rect x="0" width="21" y="0" height="32"/></clipPath><clipPath id="5de292c63d"><path d="M 1 0.421875 L 29.816406 0.421875 L 29.816406 25 L 1 25 Z M 1 0.421875 " clip-rule="nonzero"/></clipPath><clipPath id="4242c81bef"><rect x="0" width="30" y="0" height="32"/></clipPath><clipPath id="b959354c7a"><path d="M 0.0273438 1 L 20.632812 1 L 20.632812 25 L 0.0273438 25 Z M 0.0273438 1 " clip-rule="nonzero"/></clipPath><clipPath id="f17150608d"><rect x="0" width="21" y="0" height="32"/></clipPath></defs><g transform="matrix(1, 0, 0, 1, 2, 2)"><g clip-path="url(#8a75d9be19)"><g fill="#ff0099" fill-opacity="0.302"><g transform="translate(1.393206, 27.121143)"><g><path d="M 0.90625 -21.859375 L 12.28125 -21.859375 C 13.46875 -21.859375 14.539062 -21.640625 15.5 -21.203125 C 16.46875 -20.765625 17.273438 -20.175781 17.921875 -19.4375 C 18.566406 -18.695312 19.023438 -17.882812 19.296875 -17 C 19.566406 -16.113281 19.609375 -15.207031 19.421875 -14.28125 C 19.234375 -13.363281 18.773438 -12.507812 18.046875 -11.71875 C 19.046875 -10.988281 19.722656 -10.117188 20.078125 -9.109375 C 20.429688 -8.097656 20.5 -7.0625 20.28125 -6 C 20.0625 -4.9375 19.585938 -3.953125 18.859375 -3.046875 C 18.128906 -2.140625 17.175781 -1.40625 16 -0.84375 C 14.832031 -0.28125 13.476562 0 11.9375 0 L 0.90625 0 Z M 0.90625 -21.859375 "/></g></g></g><g fill="#ff0099" fill-opacity="0.302"><g transform="translate(22.566747, 27.121143)"><g><path d="M 11.875 -10.9375 L 17.921875 -10.9375 L 17.921875 0 L 0.9375 0 L 0.9375 -21.859375 L 11.875 -21.859375 Z M 11.875 -10.9375 "/></g></g></g><g fill="#ff0099" fill-opacity="0.302"><g transform="translate(41.679145, 27.121143)"><g><path d="M -0.875 0 L 12.9375 -23.390625 L 26.734375 0 Z M -0.875 0 "/></g></g></g><g fill="#ff0099" fill-opacity="0.302"><g transform="translate(65.163658, 27.121143)"><g><path d="M 3.71875 -19.078125 C 4.84375 -20.203125 6.109375 -21.046875 7.515625 -21.609375 C 8.921875 -22.171875 10.367188 -22.453125 11.859375 -22.453125 C 13.347656 -22.453125 14.789062 -22.171875 16.1875 -21.609375 C 17.59375 -21.046875 18.859375 -20.203125 19.984375 -19.078125 L 11.84375 -10.96875 L 19.984375 -2.8125 C 18.859375 -1.6875 17.59375 -0.84375 16.1875 -0.28125 C 14.789062 0.28125 13.347656 0.5625 11.859375 0.5625 C 10.367188 0.5625 8.921875 0.28125 7.515625 -0.28125 C 6.109375 -0.84375 4.84375 -1.6875 3.71875 -2.8125 C 2.59375 -3.9375 1.75 -5.203125 1.1875 -6.609375 C 0.625 -8.015625 0.34375 -9.460938 0.34375 -10.953125 C 0.34375 -12.441406 0.625 -13.882812 1.1875 -15.28125 C 1.75 -16.6875 2.59375 -17.953125 3.71875 -19.078125 Z M 3.71875 -19.078125 "/></g></g></g><g fill="#ff0099" fill-opacity="0.302"><g transform="translate(85.494003, 27.121143)"><g><path d="M 0.9375 -21.859375 L 22.359375 -21.859375 L 14.1875 -10.9375 L 22.359375 0.03125 L 0.9375 0.03125 Z M 0.9375 -21.859375 "/></g></g></g><g fill="#ff0099" fill-opacity="0.302"><g transform="translate(105.355912, 27.121143)"><g><path d="M 11.96875 -22.609375 C 13.570312 -22.609375 15.070312 -22.304688 16.46875 -21.703125 C 17.875 -21.097656 19.113281 -20.257812 20.1875 -19.1875 C 21.257812 -18.113281 22.097656 -16.875 22.703125 -15.46875 C 23.304688 -14.070312 23.609375 -12.570312 23.609375 -10.96875 C 23.609375 -9.363281 23.304688 -7.859375 22.703125 -6.453125 C 22.097656 -5.046875 21.257812 -3.804688 20.1875 -2.734375 C 19.113281 -1.660156 17.875 -0.820312 16.46875 -0.21875 C 15.070312 0.382812 13.570312 0.6875 11.96875 0.6875 C 10.363281 0.6875 8.859375 0.382812 7.453125 -0.21875 C 6.046875 -0.820312 4.804688 -1.660156 3.734375 -2.734375 C 2.660156 -3.804688 1.820312 -5.046875 1.21875 -6.453125 C 0.613281 -7.859375 0.3125 -9.363281 0.3125 -10.96875 C 0.3125 -12.570312 0.613281 -14.070312 1.21875 -15.46875 C 1.820312 -16.875 2.660156 -18.113281 3.734375 -19.1875 C 4.804688 -20.257812 6.046875 -21.097656 7.453125 -21.703125 C 8.859375 -22.304688 10.363281 -22.609375 11.96875 -22.609375 Z M 11.96875 -22.609375 "/></g></g></g><g fill="#ff0099" fill-opacity="0.302"><g transform="translate(129.777307, 27.121143)"><g><path d="M 0.8125 -10.5 L 0.8125 -21.921875 L 22.671875 -21.921875 L 22.671875 -10.5 C 22.671875 -9 22.390625 -7.585938 21.828125 -6.265625 C 21.265625 -4.941406 20.476562 -3.773438 19.46875 -2.765625 C 18.457031 -1.753906 17.289062 -0.96875 15.96875 -0.40625 C 14.65625 0.15625 13.25 0.4375 11.75 0.4375 C 10.25 0.4375 8.835938 0.15625 7.515625 -0.40625 C 6.191406 -0.96875 5.023438 -1.753906 4.015625 -2.765625 C 3.003906 -3.773438 2.21875 -4.941406 1.65625 -6.265625 C 1.09375 -7.585938 0.8125 -9 0.8125 -10.5 Z M 0.8125 -10.5 "/></g></g></g><g fill="#ff0099" fill-opacity="0.302"><g transform="translate(153.605346, 27.121143)"><g><path d="M 16.078125 -10.90625 L 16.078125 0.03125 L 5.15625 0.03125 L 5.15625 -10.90625 L 0.625 -10.90625 L 0.625 -21.859375 L 20.328125 -21.859375 L 20.328125 -10.90625 Z M 16.078125 -10.90625 "/></g></g></g><g fill="#ff0099" fill-opacity="0.502"><g transform="translate(1.393206, 25.754854)"><g><path d="M 0.90625 -21.859375 L 12.28125 -21.859375 C 13.46875 -21.859375 14.539062 -21.640625 15.5 -21.203125 C 16.46875 -20.765625 17.273438 -20.175781 17.921875 -19.4375 C 18.566406 -18.695312 19.023438 -17.882812 19.296875 -17 C 19.566406 -16.113281 19.609375 -15.207031 19.421875 -14.28125 C 19.234375 -13.363281 18.773438 -12.507812 18.046875 -11.71875 C 19.046875 -10.988281 19.722656 -10.117188 20.078125 -9.109375 C 20.429688 -8.097656 20.5 -7.0625 20.28125 -6 C 20.0625 -4.9375 19.585938 -3.953125 18.859375 -3.046875 C 18.128906 -2.140625 17.175781 -1.40625 16 -0.84375 C 14.832031 -0.28125 13.476562 0 11.9375 0 L 0.90625 0 Z M 0.90625 -21.859375 "/></g></g></g><g fill="#ff0099" fill-opacity="0.502"><g transform="translate(22.566747, 25.754854)"><g><path d="M 11.875 -10.9375 L 17.921875 -10.9375 L 17.921875 0 L 0.9375 0 L 0.9375 -21.859375 L 11.875 -21.859375 Z M 11.875 -10.9375 "/></g></g></g><g fill="#ff0099" fill-opacity="0.502"><g transform="translate(41.679145, 25.754854)"><g><path d="M -0.875 0 L 12.9375 -23.390625 L 26.734375 0 Z M -0.875 0 "/></g></g></g><g fill="#ff0099" fill-opacity="0.502"><g transform="translate(65.163658, 25.754854)"><g><path d="M 3.71875 -19.078125 C 4.84375 -20.203125 6.109375 -21.046875 7.515625 -21.609375 C 8.921875 -22.171875 10.367188 -22.453125 11.859375 -22.453125 C 13.347656 -22.453125 14.789062 -22.171875 16.1875 -21.609375 C 17.59375 -21.046875 18.859375 -20.203125 19.984375 -19.078125 L 11.84375 -10.96875 L 19.984375 -2.8125 C 18.859375 -1.6875 17.59375 -0.84375 16.1875 -0.28125 C 14.789062 0.28125 13.347656 0.5625 11.859375 0.5625 C 10.367188 0.5625 8.921875 0.28125 7.515625 -0.28125 C 6.109375 -0.84375 4.84375 -1.6875 3.71875 -2.8125 C 2.59375 -3.9375 1.75 -5.203125 1.1875 -6.609375 C 0.625 -8.015625 0.34375 -9.460938 0.34375 -10.953125 C 0.34375 -12.441406 0.625 -13.882812 1.1875 -15.28125 C 1.75 -16.6875 2.59375 -17.953125 3.71875 -19.078125 Z M 3.71875 -19.078125 "/></g></g></g><g fill="#ff0099" fill-opacity="0.502"><g transform="translate(85.494003, 25.754854)"><g><path d="M 0.9375 -21.859375 L 22.359375 -21.859375 L 14.1875 -10.9375 L 22.359375 0.03125 L 0.9375 0.03125 Z M 0.9375 -21.859375 "/></g></g></g><g fill="#ff0099" fill-opacity="0.502"><g transform="translate(105.355912, 25.754854)"><g><path d="M 11.96875 -22.609375 C 13.570312 -22.609375 15.070312 -22.304688 16.46875 -21.703125 C 17.875 -21.097656 19.113281 -20.257812 20.1875 -19.1875 C 21.257812 -18.113281 22.097656 -16.875 22.703125 -15.46875 C 23.304688 -14.070312 23.609375 -12.570312 23.609375 -10.96875 C 23.609375 -9.363281 23.304688 -7.859375 22.703125 -6.453125 C 22.097656 -5.046875 21.257812 -3.804688 20.1875 -2.734375 C 19.113281 -1.660156 17.875 -0.820312 16.46875 -0.21875 C 15.070312 0.382812 13.570312 0.6875 11.96875 0.6875 C 10.363281 0.6875 8.859375 0.382812 7.453125 -0.21875 C 6.046875 -0.820312 4.804688 -1.660156 3.734375 -2.734375 C 2.660156 -3.804688 1.820312 -5.046875 1.21875 -6.453125 C 0.613281 -7.859375 0.3125 -9.363281 0.3125 -10.96875 C 0.3125 -12.570312 0.613281 -14.070312 1.21875 -15.46875 C 1.820312 -16.875 2.660156 -18.113281 3.734375 -19.1875 C 4.804688 -20.257812 6.046875 -21.097656 7.453125 -21.703125 C 8.859375 -22.304688 10.363281 -22.609375 11.96875 -22.609375 Z M 11.96875 -22.609375 "/></g></g></g><g fill="#ff0099" fill-opacity="0.502"><g transform="translate(129.777307, 25.754854)"><g><path d="M 0.8125 -10.5 L 0.8125 -21.921875 L 22.671875 -21.921875 L 22.671875 -10.5 C 22.671875 -9 22.390625 -7.585938 21.828125 -6.265625 C 21.265625 -4.941406 20.476562 -3.773438 19.46875 -2.765625 C 18.457031 -1.753906 17.289062 -0.96875 15.96875 -0.40625 C 14.65625 0.15625 13.25 0.4375 11.75 0.4375 C 10.25 0.4375 8.835938 0.15625 7.515625 -0.40625 C 6.191406 -0.96875 5.023438 -1.753906 4.015625 -2.765625 C 3.003906 -3.773438 2.21875 -4.941406 1.65625 -6.265625 C 1.09375 -7.585938 0.8125 -9 0.8125 -10.5 Z M 0.8125 -10.5 "/></g></g></g><g fill="#ff0099" fill-opacity="0.502"><g transform="translate(153.605346, 25.754854)"><g><path d="M 16.078125 -10.90625 L 16.078125 0.03125 L 5.15625 0.03125 L 5.15625 -10.90625 L 0.625 -10.90625 L 0.625 -21.859375 L 20.328125 -21.859375 L 20.328125 -10.90625 Z M 16.078125 -10.90625 "/></g></g></g><g fill="#ff0099" fill-opacity="1"><g transform="translate(1.393206, 24.388566)"><g><path d="M 0.90625 -21.859375 L 12.28125 -21.859375 C 13.46875 -21.859375 14.539062 -21.640625 15.5 -21.203125 C 16.46875 -20.765625 17.273438 -20.175781 17.921875 -19.4375 C 18.566406 -18.695312 19.023438 -17.882812 19.296875 -17 C 19.566406 -16.113281 19.609375 -15.207031 19.421875 -14.28125 C 19.234375 -13.363281 18.773438 -12.507812 18.046875 -11.71875 C 19.046875 -10.988281 19.722656 -10.117188 20.078125 -9.109375 C 20.429688 -8.097656 20.5 -7.0625 20.28125 -6 C 20.0625 -4.9375 19.585938 -3.953125 18.859375 -3.046875 C 18.128906 -2.140625 17.175781 -1.40625 16 -0.84375 C 14.832031 -0.28125 13.476562 0 11.9375 0 L 0.90625 0 Z M 0.90625 -21.859375 "/></g></g></g><g fill="#ff0099" fill-opacity="1"><g transform="translate(22.566747, 24.388566)"><g><path d="M 11.875 -10.9375 L 17.921875 -10.9375 L 17.921875 0 L 0.9375 0 L 0.9375 -21.859375 L 11.875 -21.859375 Z M 11.875 -10.9375 "/></g></g></g><g clip-path="url(#d4cc049cbf)"><g fill="#ff0099" fill-opacity="1"><g transform="translate(41.679145, 24.388566)"><g><path d="M -0.875 0 L 12.9375 -23.390625 L 26.734375 0 Z M -0.875 0 "/></g></g></g></g><g fill="#ff0099" fill-opacity="1"><g transform="translate(65.163658, 24.388566)"><g><path d="M 3.71875 -19.078125 C 4.84375 -20.203125 6.109375 -21.046875 7.515625 -21.609375 C 8.921875 -22.171875 10.367188 -22.453125 11.859375 -22.453125 C 13.347656 -22.453125 14.789062 -22.171875 16.1875 -21.609375 C 17.59375 -21.046875 18.859375 -20.203125 19.984375 -19.078125 L 11.84375 -10.96875 L 19.984375 -2.8125 C 18.859375 -1.6875 17.59375 -0.84375 16.1875 -0.28125 C 14.789062 0.28125 13.347656 0.5625 11.859375 0.5625 C 10.367188 0.5625 8.921875 0.28125 7.515625 -0.28125 C 6.109375 -0.84375 4.84375 -1.6875 3.71875 -2.8125 C 2.59375 -3.9375 1.75 -5.203125 1.1875 -6.609375 C 0.625 -8.015625 0.34375 -9.460938 0.34375 -10.953125 C 0.34375 -12.441406 0.625 -13.882812 1.1875 -15.28125 C 1.75 -16.6875 2.59375 -17.953125 3.71875 -19.078125 Z M 3.71875 -19.078125 "/></g></g></g><g fill="#ff0099" fill-opacity="1"><g transform="translate(85.494003, 24.388566)"><g><path d="M 0.9375 -21.859375 L 22.359375 -21.859375 L 14.1875 -10.9375 L 22.359375 0.03125 L 0.9375 0.03125 Z M 0.9375 -21.859375 "/></g></g></g><g fill="#ff0099" fill-opacity="1"><g transform="translate(105.355912, 24.388566)"><g><path d="M 11.96875 -22.609375 C 13.570312 -22.609375 15.070312 -22.304688 16.46875 -21.703125 C 17.875 -21.097656 19.113281 -20.257812 20.1875 -19.1875 C 21.257812 -18.113281 22.097656 -16.875 22.703125 -15.46875 C 23.304688 -14.070312 23.609375 -12.570312 23.609375 -10.96875 C 23.609375 -9.363281 23.304688 -7.859375 22.703125 -6.453125 C 22.097656 -5.046875 21.257812 -3.804688 20.1875 -2.734375 C 19.113281 -1.660156 17.875 -0.820312 16.46875 -0.21875 C 15.070312 0.382812 13.570312 0.6875 11.96875 0.6875 C 10.363281 0.6875 8.859375 0.382812 7.453125 -0.21875 C 6.046875 -0.820312 4.804688 -1.660156 3.734375 -2.734375 C 2.660156 -3.804688 1.820312 -5.046875 1.21875 -6.453125 C 0.613281 -7.859375 0.3125 -9.363281 0.3125 -10.96875 C 0.3125 -12.570312 0.613281 -14.070312 1.21875 -15.46875 C 1.820312 -16.875 2.660156 -18.113281 3.734375 -19.1875 C 4.804688 -20.257812 6.046875 -21.097656 7.453125 -21.703125 C 8.859375 -22.304688 10.363281 -22.609375 11.96875 -22.609375 Z M 11.96875 -22.609375 "/></g></g></g><g fill="#ff0099" fill-opacity="1"><g transform="translate(129.777307, 24.388566)"><g><path d="M 0.8125 -10.5 L 0.8125 -21.921875 L 22.671875 -21.921875 L 22.671875 -10.5 C 22.671875 -9 22.390625 -7.585938 21.828125 -6.265625 C 21.265625 -4.941406 20.476562 -3.773438 19.46875 -2.765625 C 18.457031 -1.753906 17.289062 -0.96875 15.96875 -0.40625 C 14.65625 0.15625 13.25 0.4375 11.75 0.4375 C 10.25 0.4375 8.835938 0.15625 7.515625 -0.40625 C 6.191406 -0.96875 5.023438 -1.753906 4.015625 -2.765625 C 3.003906 -3.773438 2.21875 -4.941406 1.65625 -6.265625 C 1.09375 -7.585938 0.8125 -9 0.8125 -10.5 Z M 0.8125 -10.5 "/></g></g></g><g fill="#ff0099" fill-opacity="1"><g transform="translate(153.605346, 24.388566)"><g><path d="M 16.078125 -10.90625 L 16.078125 0.03125 L 5.15625 0.03125 L 5.15625 -10.90625 L 0.625 -10.90625 L 0.625 -21.859375 L 20.328125 -21.859375 L 20.328125 -10.90625 Z M 16.078125 -10.90625 "/></g></g></g></g></g><g transform="matrix(1, 0, 0, 1, 87, 1)"><g clip-path="url(#192a4147c6)"><g fill="#ccff00" fill-opacity="1"><g transform="translate(0.435874, 24.076384)"><g><path d="M 0.9375 -21.859375 L 22.359375 -21.859375 L 14.1875 -10.9375 L 22.359375 0.03125 L 0.9375 0.03125 Z M 0.9375 -21.859375 "/></g></g></g></g></g><g transform="matrix(1, 0, 0, 1, 107, 1)"><g clip-path="url(#8f06733c0a)"><g clip-path="url(#696720c12d)"><g fill="#ccff00" fill-opacity="1"><g transform="translate(0.100562, 23.920237)"><g><path d="M 11.96875 -22.609375 C 13.570312 -22.609375 15.070312 -22.304688 16.46875 -21.703125 C 17.875 -21.097656 19.113281 -20.257812 20.1875 -19.1875 C 21.257812 -18.113281 22.097656 -16.875 22.703125 -15.46875 C 23.304688 -14.070312 23.609375 -12.570312 23.609375 -10.96875 C 23.609375 -9.363281 23.304688 -7.859375 22.703125 -6.453125 C 22.097656 -5.046875 21.257812 -3.804688 20.1875 -2.734375 C 19.113281 -1.660156 17.875 -0.820312 16.46875 -0.21875 C 15.070312 0.382812 13.570312 0.6875 11.96875 0.6875 C 10.363281 0.6875 8.859375 0.382812 7.453125 -0.21875 C 6.046875 -0.820312 4.804688 -1.660156 3.734375 -2.734375 C 2.660156 -3.804688 1.820312 -5.046875 1.21875 -6.453125 C 0.613281 -7.859375 0.3125 -9.363281 0.3125 -10.96875 C 0.3125 -12.570312 0.613281 -14.070312 1.21875 -15.46875 C 1.820312 -16.875 2.660156 -18.113281 3.734375 -19.1875 C 4.804688 -20.257812 6.046875 -21.097656 7.453125 -21.703125 C 8.859375 -22.304688 10.363281 -22.609375 11.96875 -22.609375 Z M 11.96875 -22.609375 "/></g></g></g></g></g></g><g transform="matrix(1, 0, 0, 1, 131, 1)"><g clip-path="url(#c6608bc389)"><g fill="#ccff00" fill-opacity="1"><g transform="translate(0.731576, 24.076384)"><g><path d="M 0.8125 -10.5 L 0.8125 -21.921875 L 22.671875 -21.921875 L 22.671875 -10.5 C 22.671875 -9 22.390625 -7.585938 21.828125 -6.265625 C 21.265625 -4.941406 20.476562 -3.773438 19.46875 -2.765625 C 18.457031 -1.753906 17.289062 -0.96875 15.96875 -0.40625 C 14.65625 0.15625 13.25 0.4375 11.75 0.4375 C 10.25 0.4375 8.835938 0.15625 7.515625 -0.40625 C 6.191406 -0.96875 5.023438 -1.753906 4.015625 -2.765625 C 3.003906 -3.773438 2.21875 -4.941406 1.65625 -6.265625 C 1.09375 -7.585938 0.8125 -9 0.8125 -10.5 Z M 0.8125 -10.5 "/></g></g></g></g></g><g transform="matrix(1, 0, 0, 1, 155, 1)"><g clip-path="url(#0ac6b04f1e)"><g fill="#ccff00" fill-opacity="1"><g transform="translate(0.581838, 24.388679)"><g><path d="M 16.078125 -10.90625 L 16.078125 0.03125 L 5.15625 0.03125 L 5.15625 -10.90625 L 0.625 -10.90625 L 0.625 -21.859375 L 20.328125 -21.859375 L 20.328125 -10.90625 Z M 16.078125 -10.90625 "/></g></g></g></g></g><g transform="matrix(1, 0, 0, 1, 3, 1)"><g clip-path="url(#dbcc3356f0)"><g fill="#ccff00" fill-opacity="1"><g transform="translate(0.330014, 24.076384)"><g><path d="M 0.90625 -21.859375 L 12.28125 -21.859375 C 13.46875 -21.859375 14.539062 -21.640625 15.5 -21.203125 C 16.46875 -20.765625 17.273438 -20.175781 17.921875 -19.4375 C 18.566406 -18.695312 19.023438 -17.882812 19.296875 -17 C 19.566406 -16.113281 19.609375 -15.207031 19.421875 -14.28125 C 19.234375 -13.363281 18.773438 -12.507812 18.046875 -11.71875 C 19.046875 -10.988281 19.722656 -10.117188 20.078125 -9.109375 C 20.429688 -8.097656 20.5 -7.0625 20.28125 -6 C 20.0625 -4.9375 19.585938 -3.953125 18.859375 -3.046875 C 18.128906 -2.140625 17.175781 -1.40625 16 -0.84375 C 14.832031 -0.28125 13.476562 0 11.9375 0 L 0.90625 0 Z M 0.90625 -21.859375 "/></g></g></g></g></g><g transform="matrix(1, 0, 0, 1, 24, 1)"><g clip-path="url(#7c19b93a15)"><g fill="#ccff00" fill-opacity="1"><g transform="translate(0.478227, 24.076384)"><g><path d="M 11.875 -10.9375 L 17.921875 -10.9375 L 17.921875 0 L 0.9375 0 L 0.9375 -21.859375 L 11.875 -21.859375 Z M 11.875 -10.9375 "/></g></g></g></g></g><g transform="matrix(1, 0, 0, 1, 41, 1)"><g clip-path="url(#4242c81bef)"><g clip-path="url(#5de292c63d)"><g fill="#ccff00" fill-opacity="1"><g transform="translate(2.353028, 24.076384)"><g><path d="M -0.875 0 L 12.9375 -23.390625 L 26.734375 0 Z M -0.875 0 "/></g></g></g></g></g></g><g transform="matrix(1, 0, 0, 1, 67, 1)"><g clip-path="url(#f17150608d)"><g clip-path="url(#b959354c7a)"><g fill="#ccff00" fill-opacity="1"><g transform="translate(0.113727, 24.076384)"><g><path d="M 3.71875 -19.078125 C 4.84375 -20.203125 6.109375 -21.046875 7.515625 -21.609375 C 8.921875 -22.171875 10.367188 -22.453125 11.859375 -22.453125 C 13.347656 -22.453125 14.789062 -22.171875 16.1875 -21.609375 C 17.59375 -21.046875 18.859375 -20.203125 19.984375 -19.078125 L 11.84375 -10.96875 L 19.984375 -2.8125 C 18.859375 -1.6875 17.59375 -0.84375 16.1875 -0.28125 C 14.789062 0.28125 13.347656 0.5625 11.859375 0.5625 C 10.367188 0.5625 8.921875 0.28125 7.515625 -0.28125 C 6.109375 -0.84375 4.84375 -1.6875 3.71875 -2.8125 C 2.59375 -3.9375 1.75 -5.203125 1.1875 -6.609375 C 0.625 -8.015625 0.34375 -9.460938 0.34375 -10.953125 C 0.34375 -12.441406 0.625 -13.882812 1.1875 -15.28125 C 1.75 -16.6875 2.59375 -17.953125 3.71875 -19.078125 Z M 3.71875 -19.078125 "/></g></g></g></g></g></g></svg>